<svg xmlns="http://www.w3.org/2000/svg" width="312.997" height="53.839"><path fill="#A5CDD7" d="M289.442 23.553c3.225.85 6.654 2.06 10.253 3.738.999.466 1.941.949 2.828 1.446 7.426-8.261 8.249-15.995 3.032-21.212l-.004-.003-.003-.004c-5.222-5.222-12.965-4.393-21.235 3.052.478.859.943 1.768 1.392 2.731 1.677 3.598 2.887 7.028 3.737 10.252z"/><path fill="#7EB8C5" d="M268.543 35.115c-1.505 5.142-1.698 9.148-1.698 11.113 1.942 0 5.958-.194 11.122-1.709a48.457 48.457 0 0 1-4.993-4.497 48.305 48.305 0 0 1-4.431-4.907z"/><path fill="#A5CDD7" d="M274.736 21.827c2.059-3.151 4.65-6.414 7.913-9.676a43.829 43.829 0 0 1 1.663-1.58c-5.182-9.303-12.005-12.502-18.541-9.454l-.004.002-.005.002c-7.14 3.329-8.791 11.711-3.479 23.102l.142.298a37.71 37.71 0 0 1-.158-.425c1.983-.723 6.347-2.068 12.469-2.269zM302.522 28.737a43.4 43.4 0 0 1-1.6 1.686c-3.289 3.289-6.58 5.895-9.758 7.961-.215 6.056-1.547 10.375-2.263 12.344a37.71 37.71 0 0 1-.425-.158l.298.142c11.391 5.312 19.772 3.661 23.102-3.479l.002-.005.002-.004c3.036-6.514-.13-13.311-9.358-18.487z"/><path fill="#7EB8C5" d="M262.267 24.095c.048.132.101.274.158.425.815 2.141 2.594 6.104 6.118 10.595l.067-.228c1.15-3.855 3.038-8.332 6.126-13.06-6.122.201-10.486 1.546-12.469 2.268z"/><path fill="#57A2B1" d="M289.442 23.553c-5.583-1.472-10.55-1.863-14.706-1.727-3.089 4.728-4.976 9.206-6.126 13.06l-.067.228a48.527 48.527 0 0 0 4.43 4.907 48.561 48.561 0 0 0 4.993 4.497l.231-.068c3.83-1.145 8.275-3.017 12.966-6.067.149-4.18-.235-9.19-1.721-14.83z"/><path fill="#7EB8C5" d="M289.442 23.553c-.85-3.225-2.06-6.654-3.738-10.253a42.863 42.863 0 0 0-1.392-2.731 43.829 43.829 0 0 0-1.663 1.58c-3.263 3.263-5.854 6.525-7.913 9.676 4.156-.135 9.123.257 14.706 1.728zM291.164 38.384c-4.691 3.05-9.136 4.922-12.966 6.067l-.231.068c4.455 3.479 8.382 5.241 10.509 6.051.151.057.293.11.425.158.716-1.969 2.047-6.288 2.263-12.344zM300.922 30.423a43.4 43.4 0 0 0 1.6-1.686 42.787 42.787 0 0 0-2.828-1.446c-3.598-1.678-7.028-2.888-10.253-3.738 1.487 5.639 1.87 10.649 1.722 14.831 3.179-2.066 6.47-4.672 9.759-7.961z"/><g><g fill="#1F2F56"><path d="M74.107 10.555h-6.219c-.158 0-.249.08-.271.237v35.086c0 .158.09.236.271.236h6.219c.18 0 .27-.079.27-.236V10.792c0-.135-.09-.214-.27-.237zM157.935 23.518c0-3.472 2.691-6.879 6.928-6.879h9.837c.18 0 .271-.09.271-.271v-5.543c0-.157-.091-.247-.271-.27h-9.837c-8.764.597-11.554 6.411-12.826 11.188l-.013-.004c-.097.089-.102 3.34-.102 6.699.067 2.605-.169 5.09.249 7.024 1.478 6.842 6.842 10.652 12.693 10.652h9.837c.18 0 .271-.09.271-.27v-5.543c0-.158-.091-.248-.271-.271h-9.771c-4.883 0-7.002-3.85-7.002-6.79s.007-4.852.007-9.722zM81.273 10.555h15.971c5.211 0 11.882 5.191 11.882 11.853v23.437c0 .181-.091.27-.271.27h-6.219c-.181 0-.271-.09-.271-.27V24.501c0-4.048-3.087-8.098-8.053-7.995l-6.684-.001v29.34c0 .181-.091.27-.271.27h-6.084c-.181 0-.271-.09-.271-.27V10.826c.022-.18.113-.271.271-.271zM12.288 10.555H.192c-.112 0-.176.064-.192.191v5.702c0 .128.063.191.192.191h10.317v29.284c0 .128.063.191.191.191h6.378c.128 0 .191-.063.191-.191V14.866c0-1.117-.224-2.043-.671-2.778-.622-1.022-2.059-1.533-4.31-1.533z"/><path d="M27.586 10.555H9.043v.191c.51 0 .978.17 1.361.449.285.191.547.467.727.877.134.281.214.592.224.922.016.159.026.325.023.508-.02 1.501-.02 3.138-.02 3.138h16.227c.128 0 .192-.063.192-.191v-5.702c.001-.112-.063-.176-.191-.192zM216.852 10.555h15.971c5.211 0 11.882 5.191 11.882 11.853v23.437c0 .181-.091.27-.271.27h-6.219c-.181 0-.271-.09-.271-.27V24.501c0-4.048-3.087-8.098-8.053-7.995l-6.684-.001v29.34c0 .181-.091.27-.271.27h-6.084c-.181 0-.271-.09-.271-.27V10.826c.022-.18.113-.271.271-.271zM210.058 19.75c0-.653-.135-1.78-.405-3.38-1.195-3.875-3.808-5.814-7.843-5.814h-17.035c-.158 0-.249.09-.271.27v5.543c0 .181.09.271.271.271h16.047c3.072 0 3.5 4.701 0 5.061-2.95.393-5.859.759-7.768.872-6.678.396-11.209 5.144-11.659 11.103v.383c0 1.826.36 3.628 1.082 5.409 1.69 3.876 5.385 6.648 11.087 6.648h16.224c.18 0 .271-.09.271-.27v-25.65h-.015c.005-.148.014-.294.014-.446zm-16.811 20.281c-7.782 0-7.468-11.462 0-11.462s8.533-.733 10.05-.962v12.425c.001-.001-3.194-.001-10.05-.001zM61.781 19.75c0-.653-.135-1.78-.405-3.38-1.195-3.875-3.808-5.814-7.843-5.814H36.498c-.158 0-.249.09-.271.27v5.543c0 .181.09.271.271.271h16.047c3.072 0 3.5 4.701 0 5.061-2.95.393-5.859.759-7.768.872-6.678.396-11.209 5.144-11.659 11.103v.383c0 1.826.36 3.628 1.082 5.409 1.69 3.876 5.385 6.648 11.087 6.648h16.224c.18 0 .271-.09.271-.27v-25.65h-.015c.006-.148.014-.294.014-.446zm-16.81 20.281c-7.782 0-7.468-11.462 0-11.462s8.533-.733 10.05-.962v12.425c.001-.001-3.194-.001-10.05-.001zM144.978 19.75c0-.653-.135-1.78-.405-3.38-1.195-3.875-3.808-5.814-7.843-5.814h-17.035c-.158 0-.249.09-.271.27v5.543c0 .181.09.271.271.271h16.047c3.073 0 3.5 4.701 0 5.061-2.95.393-5.859.759-7.768.872-6.678.396-11.209 5.144-11.659 11.103v.383c0 1.826.36 3.628 1.082 5.409 1.69 3.876 5.385 6.648 11.087 6.648h16.224c.18 0 .271-.09.271-.27v-25.65h-.015c.006-.148.014-.294.014-.446zm-16.81 20.281c-7.782 0-7.468-11.462 0-11.462s8.533-.733 10.05-.962v12.425l-10.05-.001z"/></g></g></svg>