<?xml version="1.0" encoding="utf-8"?>
<!-- Generator: Adobe Illustrator 17.0.0, SVG Export Plug-In . SVG Version: 6.00 Build 0)  -->
<!DOCTYPE svg PUBLIC "-//W3C//DTD SVG 1.1//EN" "http://www.w3.org/Graphics/SVG/1.1/DTD/svg11.dtd">
<svg version="1.1" xmlns="http://www.w3.org/2000/svg" xmlns:xlink="http://www.w3.org/1999/xlink" x="0px" y="0px"
	 width="129.08px" height="67.195px" viewBox="0 0 129.08 67.195" enable-background="new 0 0 129.08 67.195" xml:space="preserve">
<g id="Camada_1">
	<g>
		<path fill="#FFFFFF" d="M32.016,51.833h-2.687c-0.068,0-0.107,0.034-0.117,0.102v2.236v0.611v12.311
			c0,0.068,0.039,0.102,0.117,0.102h2.687c0.078,0,0.117-0.034,0.117-0.102V53.775v-1.269v-0.571
			C32.133,51.877,32.094,51.843,32.016,51.833z"/>
		<path fill="#FFFFFF" d="M75.475,51.833h-4.25c-3.786,0.258-4.992,2.77-5.541,4.833l-0.006-0.002
			c-0.042,0.039-0.044,1.443-0.044,2.894c0.029,1.125-0.073,2.199,0.107,3.034c0.639,2.956,2.956,4.602,5.484,4.602h4.25
			c0.078,0,0.117-0.039,0.117-0.117v-2.395c0-0.068-0.039-0.107-0.117-0.117c0,0-2.112,0-4.221,0c-2.11,0-3.025-1.663-3.025-2.933
			c0-1.27,0.003-2.096,0.003-4.2c0-1.5,1.163-2.972,2.993-2.972h4.25c0.078,0,0.117-0.039,0.117-0.117V51.95
			C75.592,51.882,75.553,51.843,75.475,51.833z"/>
		<path fill="#FFFFFF" d="M42.012,51.833c-1.856,0-6.9,0-6.9,0c-0.068,0-0.108,0.039-0.117,0.117v15.129
			c0,0.078,0.039,0.117,0.117,0.117h2.628c0.078,0,0.117-0.039,0.117-0.117V54.403l2.888,0c2.145-0.044,3.479,1.705,3.479,3.454
			v9.221c0,0.078,0.039,0.117,0.117,0.117h2.687c0.078,0,0.117-0.039,0.117-0.117V56.953C47.145,54.075,44.263,51.833,42.012,51.833
			z"/>
		<path fill="#FFFFFF" d="M11.918,51.833H5.309H3.907H0.083c-0.048,0-0.076,0.028-0.083,0.083v2.463
			c0,0.055,0.027,0.083,0.083,0.083H4.54v12.651c0,0.055,0.027,0.083,0.083,0.083h2.755c0.055,0,0.083-0.027,0.083-0.083V54.461
			h4.457c0.055,0,0.083-0.027,0.083-0.083v-2.463C12.001,51.867,11.973,51.84,11.918,51.833z"/>
		<path fill="#FFFFFF" d="M100.586,51.833c-1.856,0-6.9,0-6.9,0c-0.068,0-0.108,0.039-0.117,0.117v15.129
			c0,0.078,0.039,0.117,0.117,0.117h2.628c0.078,0,0.117-0.039,0.117-0.117V54.403l2.888,0c2.145-0.044,3.479,1.705,3.479,3.454
			l0,9.221c0,0.078,0.039,0.117,0.117,0.117h2.687c0.078,0,0.117-0.039,0.117-0.117V56.953
			C105.719,54.075,102.837,51.833,100.586,51.833z"/>
		<path fill="#FFFFFF" d="M90.575,54.345c-0.516-1.674-1.645-2.512-3.388-2.512h-7.36c-0.068,0-0.107,0.039-0.117,0.117v2.395
			c0,0.078,0.039,0.117,0.117,0.117c0,0,5.605,0,6.933,0c1.327,0,1.512,2.031,0,2.186c-1.275,0.17-2.531,0.328-3.356,0.377
			c-2.885,0.171-4.843,2.222-5.037,4.797v0.165c0,0.789,0.156,1.568,0.467,2.337c0.73,1.675,2.327,2.872,4.79,2.872h7.009
			c0.078,0,0.117-0.039,0.117-0.117V55.998h-0.006c0.003-0.064,0.006-0.127,0.006-0.193C90.75,55.523,90.692,55.036,90.575,54.345z
			 M87.83,64.567c0,0-1.38,0-4.342,0c-3.362,0-3.226-4.952,0-4.952c3.226,0,3.686-0.317,4.342-0.416V64.567z"/>
		<path fill="#FFFFFF" d="M26.516,54.345c-0.516-1.674-1.645-2.512-3.388-2.512h-7.36c-0.068,0-0.107,0.039-0.117,0.117v2.395
			c0,0.078,0.039,0.117,0.117,0.117c0,0,5.605,0,6.933,0c1.327,0,1.512,2.031,0,2.186c-1.275,0.17-2.531,0.328-3.356,0.377
			c-2.885,0.171-4.843,2.222-5.037,4.797v0.165c0,0.789,0.156,1.568,0.467,2.337c0.73,1.675,2.327,2.872,4.79,2.872h7.009
			c0.078,0,0.117-0.039,0.117-0.117V55.998h-0.006c0.003-0.064,0.006-0.127,0.006-0.193C26.691,55.523,26.633,55.036,26.516,54.345z
			 M23.771,64.567c0,0-1.38,0-4.342,0c-3.362,0-3.226-4.952,0-4.952c3.226,0,3.686-0.317,4.342-0.416V64.567z"/>
		<path fill="#FFFFFF" d="M62.459,54.345c-0.516-1.674-1.645-2.512-3.388-2.512h-7.36c-0.068,0-0.107,0.039-0.117,0.117v2.395
			c0,0.078,0.039,0.117,0.117,0.117c0,0,5.605,0,6.933,0c1.327,0,1.512,2.031,0,2.186c-1.275,0.17-2.531,0.328-3.356,0.377
			c-2.885,0.171-4.843,2.222-5.037,4.797v0.165c0,0.789,0.156,1.568,0.467,2.337c0.73,1.675,2.327,2.872,4.79,2.872h7.009
			c0.078,0,0.117-0.039,0.117-0.117V55.998h-0.006c0.003-0.064,0.006-0.127,0.006-0.193C62.634,55.523,62.576,55.036,62.459,54.345z
			 M59.714,64.567c0,0-1.38,0-4.342,0c-3.362,0-3.226-4.952,0-4.952c3.226,0,3.686-0.317,4.342-0.416V64.567z"/>
		<path opacity="0.31" fill="#FFFFFF" d="M118.247,26.635c-0.068-0.039-0.119-0.067-0.16-0.09
			C118.128,26.567,118.179,26.596,118.247,26.635c6.882-7.615,7.662-14.759,2.855-19.592c-0.001-0.001-0.002-0.002-0.003-0.003
			s-0.002-0.002-0.003-0.003c-4.812-4.838-11.969-4.092-19.629,2.767v0l-0.001,0l0.001-0.001C96.702,1.194,90.406-1.779,84.359,1.02
			c-0.001,0.001-0.003,0.001-0.004,0.002c-0.001,0.001-0.003,0.001-0.004,0.002c-6.539,3.027-8.116,10.644-3.414,21.02
			c0.675-0.17,1.599-0.381,2.661-0.6c-0.014-0.03-0.028-0.059-0.042-0.089c-4.3-9.217-3.374-15.81,1.765-18.207
			c0.001,0,0.002-0.001,0.003-0.001c0.001-0.001,0.002-0.001,0.003-0.002c4.787-2.233,10.015,0.674,14.184,8.533
			c-2.828,2.867-5.099,5.73-6.92,8.502c0.978-0.029,2.005-0.027,3.076,0.016c1.409-1.97,3.075-4,5.045-6.053
			c-0.004-0.008-0.008-0.017-0.012-0.026c0.004,0.008,0.009,0.019,0.012,0.025l0,0c1.106,2.447,1.966,4.785,2.626,6.999
			c0.925,0.191,1.871,0.413,2.836,0.671c-0.777-2.982-1.887-6.154-3.428-9.483c-0.021-0.045-0.042-0.089-0.063-0.134l0,0l0,0
			c6.709-6.204,12.731-7.242,16.526-3.459c0.001,0.001,0.002,0.002,0.002,0.003c0.001,0.001,0.002,0.002,0.003,0.002
			c3.808,3.795,2.772,9.847-3.464,16.604l0,0c-0.03,0.032-0.036,0.039,0,0c-0.038-0.018-0.075-0.036-0.112-0.054
			c-3.321-1.559-6.487-2.686-9.464-3.48v0c-0.966-0.257-1.912-0.48-2.836-0.671c0.279,0.937,0.523,1.852,0.734,2.743
			c0.115,0.028,0.115,0.028,0,0c0.915,3.857,1.227,7.275,1.223,10.156h0l0,0v0c-3.239,2.04-6.259,3.396-8.876,4.297
			c-0.936-0.721-1.805-1.444-2.61-2.164l0,0c0,0,0,0,0,0c-1.34-1.311-2.72-2.835-4.089-4.604l0,0
			c0.906-2.642,2.27-5.692,4.328-8.962c2.859,0.022,6.232,0.358,10.025,1.279c-0.211-0.891-0.455-1.806-0.734-2.743
			c-2.755-0.568-5.322-0.853-7.671-0.946l0,0c-1.072-0.042-2.098-0.045-3.076-0.016c0,0-0.001,0.001-0.001,0.002
			c0-0.001,0.001-0.001,0.001-0.001c-2.581,0.077-6.243,0.696-8.992,1.264c0,0-0.001,0-0.001,0.001
			c-1.063,0.219-1.986,0.431-2.66,0.6c0.001,0.002,0.002,0.004,0.002,0.005l0.001,0.002l0,0c0.047,0.103,0.465,1.215,0.993,2.336
			l0,0c1.161,2.171,2.455,4.918,4.901,8.053l0,0c0,0,0,0.001,0,0.001l0,0l0,0c-1.404,4.747-1.592,8.448-1.597,10.264
			c1.794,0.005,5.506-0.164,10.281-1.551c3.1,2.434,5.923,3.963,7.966,4.891c0.664,0.302,2.248,0.968,2.37,1.024
			c0.126-0.486,0.126-0.486,0,0c10.325,4.73,17.931,3.189,20.989-3.322c0.001-0.001,0.001-0.003,0.002-0.004
			c0.001-0.001,0.001-0.003,0.002-0.004C129.669,37.729,126.761,31.44,118.247,26.635z M99.51,11.678
			c0.001-0.001,0.003-0.003,0.004-0.004C99.514,11.674,99.511,11.677,99.51,11.678c0.044,0.082,0.098,0.189,0.158,0.308
			C99.616,11.884,99.564,11.778,99.51,11.678z M84.73,23.732L84.73,23.732L84.73,23.732L84.73,23.732L84.73,23.732
			c2.029-0.436,4.568-0.908,6.308-1.032c0-0.001,0.001-0.002,0.001-0.002c0,0.001-0.001,0.002-0.001,0.002h0
			c-1.292,2.246-2.298,4.41-3.081,6.441l0,0h0l0,0C86.858,27.525,84.736,23.742,84.73,23.732z M89.618,31.864
			c0,0.001,0,0.001,0,0.001l0,0.001C89.618,31.866,89.618,31.865,89.618,31.864z M88.779,34.763L88.779,34.763L88.779,34.763
			C88.779,34.763,88.779,34.763,88.779,34.763c0.66,0.735,1.371,1.479,2.137,2.224c-0.006-0.006-0.012-0.012-0.017-0.018
			c0.006,0.006,0.012,0.012,0.017,0.018c0.001,0.001,0.003,0.003,0.004,0.004c-0.001-0.001-0.003-0.003-0.004-0.004
			c0.791,0.821,1.579,1.579,2.359,2.28c-2.413,0.597-4.267,0.782-5.332,0.847C88.002,39.059,88.183,37.196,88.779,34.763z
			 M104.147,43.247c-0.303,0.025-4.049-2.07-5.349-3.189l0,0c2.01-0.761,6.373-2.993,6.373-2.993s0.007-0.004,0.01-0.006
			C105.18,37.065,104.573,41.271,104.147,43.247z M113.821,27.305C113.873,27.254,113.857,27.269,113.821,27.305
			c0,0,0.001,0.001,0.002,0.001C113.822,27.305,113.821,27.305,113.821,27.305c-2.064,1.991-4.105,3.672-6.085,5.092v0l0,0l0,0
			c-0.077-2.372-0.35-4.969-0.91-7.76C109.04,25.31,111.377,26.185,113.821,27.305z M124.635,42.651
			c-0.001,0.001-0.001,0.002-0.002,0.003c-0.001,0.001-0.001,0.002-0.001,0.003c-2.407,5.125-8.984,6.039-18.168,1.739
			c0.561-2.707,1.173-6.319,1.27-8.866c0.001-0.006-0.001-0.009,0-0.015c2.814-1.819,5.725-4.097,8.639-6.944
			c-0.127-0.069-0.105-0.057,0,0C124.045,32.739,126.858,37.917,124.635,42.651z"/>
		<rect x="80.936" y="22.045" fill="#FFFFFF" width="0" height="0"/>
		<path fill="#FFFFFF" d="M118.247,26.635c6.966-7.825,7.662-14.759,2.855-19.592c-0.001-0.001-0.002-0.002-0.003-0.003
			s-0.002-0.002-0.003-0.003c-4.812-4.838-11.969-4.092-19.629,2.767v0l-0.001,0l0.001-0.001C96.702,1.194,90.406-1.779,84.359,1.02
			c-0.001,0.001-0.003,0.001-0.004,0.002c-0.001,0.001-0.003,0.001-0.004,0.002c-8.151,3.419-8.996,14.827,2.484,31.417l0,0
			c0,0,0,0.001,0,0.001l0,0l0,0c-1.404,4.747-1.592,8.448-1.597,10.264c1.794,0.005,5.506-0.164,10.281-1.551
			c18.709,12.724,28.427,9.344,31.325,2.593c0.001-0.001,0.001-0.003,0.002-0.004c0.001-0.001,0.001-0.003,0.002-0.004
			C129.669,37.729,126.48,31.063,118.247,26.635z M103.337,21.141c-2.755-0.568-5.322-0.853-7.671-0.946l0,0h0l0,0
			c1.409-1.97,3.075-4,5.045-6.053C100.708,14.134,102.677,18.927,103.337,21.141z M85.32,3.148c0.001,0,0.002-0.001,0.003-0.001
			c0.001-0.001,0.002-0.001,0.003-0.002c4.787-2.233,10.015,0.674,14.184,8.533c-2.828,2.867-5.099,5.73-6.92,8.502l0,0
			c0,0-0.001,0.001-0.001,0.002c0-0.001,0.001-0.001,0.001-0.001c-2.581,0.077-5.827,0.742-8.992,1.264
			C79.157,12.049,80.181,5.545,85.32,3.148z M84.73,23.732L84.73,23.732L84.73,23.732L84.73,23.732L84.73,23.732
			c2.029-0.436,4.568-0.908,6.308-1.032c0-0.001,0.001-0.002,0.001-0.002c0,0.001-0.001,0.002-0.001,0.002h0
			c-1.292,2.246-2.298,4.41-3.081,6.441l0,0h0l0,0C86.858,27.525,84.736,23.742,84.73,23.732z M87.942,40.115
			c0.06-1.056,0.241-2.919,0.836-5.351l0,0l0,0c0,0,0,0,0,0c0.639,0.774,3.703,3.826,4.495,4.505
			C90.861,39.865,89.007,40.051,87.942,40.115z M104.147,43.247c-0.303,0.025-4.049-2.07-5.349-3.189l0,0
			c2.01-0.761,6.373-2.993,6.373-2.993s0.007-0.004,0.01-0.006C105.18,37.065,104.573,41.271,104.147,43.247z M105.295,34.04
			L105.295,34.04c-3.239,2.04-6.259,3.396-8.876,4.297c-0.936-0.721-1.805-1.444-2.61-2.164l0,0c0,0,0,0,0,0
			c-1.34-1.311-2.72-2.835-4.089-4.604l0,0c0.906-2.642,2.27-5.692,4.328-8.962c2.826-0.221,10.006,1.139,10.025,1.279
			C104.28,23.915,105.438,31.163,105.295,34.04L105.295,34.04L105.295,34.04z M102.683,12.195L102.683,12.195L102.683,12.195
			c6.709-6.204,12.731-7.242,16.526-3.459c0.001,0.001,0.002,0.002,0.002,0.003c0.001,0.001,0.002,0.002,0.003,0.002
			c3.808,3.795,2.772,9.847-3.464,16.604l0,0c-0.03,0.032-0.036,0.039,0,0c-0.038-0.018-3.636-1.888-9.576-3.533
			C105.728,19.347,103.106,12.818,102.683,12.195z M113.823,27.306c-0.001,0-0.001-0.001-0.002-0.001
			c-2.064,1.991-4.105,3.672-6.085,5.092v0l0,0l0,0c-0.077-2.372-0.35-4.969-0.91-7.76c2.214,0.673,4.551,1.548,6.994,2.668
			c0.052-0.05,0.037-0.035,0,0C113.821,27.305,113.822,27.305,113.823,27.306z M124.635,42.651
			c-0.001,0.001-0.001,0.002-0.002,0.003c-0.001,0.001-0.001,0.002-0.001,0.003c-2.407,5.125-8.984,6.039-18.168,1.739
			c0.561-2.707,1.173-6.319,1.27-8.866c0.001-0.006-0.001-0.009,0-0.015c2.814-1.819,5.725-4.097,8.639-6.944
			c-0.127-0.069-0.105-0.057,0,0C124.045,32.739,126.858,37.917,124.635,42.651z"/>
	</g>
</g>
<g id="Camada_3">
</g>
<g id="Camada_2">
</g>
</svg>
